<svg width="20" height="27" viewBox="0 0 20 27" fill="none" xmlns="http://www.w3.org/2000/svg">
<path d="M1.30018 17.5824L3.8534 1.15421C3.87214 1.03255 3.92866 0.919858 4.01498 0.832091C4.10129 0.744325 4.21302 0.685924 4.33435 0.665153C4.45568 0.644382 4.58047 0.662293 4.69106 0.71635C4.80166 0.770408 4.89245 0.857876 4.95059 0.966375L7.69682 6.12074L1.30018 17.5824ZM19.4369 21.5683L17.0055 6.44977C16.9872 6.34396 16.9403 6.24518 16.8698 6.16414C16.7994 6.08311 16.7081 6.02291 16.6058 5.99008C16.5036 5.95724 16.3943 5.95303 16.2898 5.97789C16.1854 6.00275 16.0897 6.05573 16.0132 6.1311L0.679688 21.5683L9.1645 26.3496C9.6969 26.6475 10.3459 26.6475 10.8783 26.3496L19.4369 21.5683ZM12.5416 8.37472L10.5765 4.6142C10.5268 4.51979 10.4523 4.44076 10.361 4.38562C10.2696 4.33048 10.165 4.30134 10.0583 4.30134C9.95164 4.30134 9.847 4.33048 9.75568 4.38562C9.66436 4.44076 9.58984 4.51979 9.54016 4.6142L0.911562 20.0773L12.5416 8.37472Z" fill="#303030" fill-opacity="0.8"/>
</svg>
