<svg width="32" height="32" viewBox="0 0 32 32" fill="none" xmlns="http://www.w3.org/2000/svg">
<g clip-path="url(#clip0_47_722)">
<path d="M14.7277 0.876465C14.6603 0.882941 14.4479 0.904963 14.2562 0.919212C9.84147 1.31819 5.70658 3.70042 3.08471 7.36249C1.63685 9.37258 0.695649 11.7025 0.341074 14.1542C0.216717 15.0092 0.201172 15.2605 0.201172 16.4186C0.201172 17.5766 0.216717 17.8292 0.341074 18.6829C1.18567 24.5212 5.34128 29.4256 10.9749 31.243C11.984 31.5682 13.0476 31.7897 14.2562 31.9244C14.7277 31.9762 16.764 31.9762 17.2356 31.9244C19.3224 31.6925 21.0919 31.1757 22.8355 30.2857C23.1037 30.1497 23.1555 30.1121 23.1192 30.0823C22.2663 28.9576 21.4222 27.8262 20.5867 26.6884L18.1009 23.3295L14.9868 18.7192C13.9506 17.1772 12.9048 15.6417 11.8493 14.1128C11.8377 14.1089 11.826 16.1569 11.8195 18.6596C11.8105 23.038 11.8066 23.2142 11.7522 23.3178C11.6991 23.4388 11.6044 23.5367 11.4853 23.5937C11.3882 23.643 11.304 23.652 10.8441 23.652H10.3182L10.1783 23.5639C10.0917 23.5093 10.0214 23.4323 9.9749 23.3411L9.91013 23.2051L9.9166 17.1116L9.92567 11.0155L10.0202 10.8963C10.0839 10.8218 10.1602 10.7591 10.2456 10.7111C10.37 10.6502 10.4179 10.645 10.9451 10.645C11.5643 10.645 11.668 10.6683 11.8286 10.8445C11.8739 10.8937 13.5605 13.4353 15.5788 16.495L21.7111 25.7855L24.1724 29.5137L24.298 29.4321C25.4825 28.6446 26.5564 27.7023 27.4912 26.6301C29.45 24.3882 30.7206 21.6288 31.1507 18.6829C31.275 17.8279 31.2906 17.5766 31.2906 16.4186C31.2906 15.2605 31.275 15.0092 31.1507 14.1542C30.3061 8.31719 26.1504 3.41154 20.5168 1.59411C19.4639 1.25934 18.3797 1.03235 17.2809 0.916622C16.9881 0.885532 14.9803 0.851852 14.729 0.87776L14.7277 0.876465ZM21.0919 10.281C21.1642 10.3174 21.2285 10.3677 21.2812 10.4291C21.3339 10.4904 21.3739 10.5616 21.399 10.6385C21.4223 10.7163 21.4287 12.4067 21.4223 16.2152L21.4132 21.6791L20.4507 20.2024L19.4844 18.7257V14.754C19.4844 12.1852 19.496 10.7422 19.5142 10.6722C19.5357 10.5913 19.5735 10.5156 19.6251 10.4497C19.6768 10.3838 19.7413 10.329 19.8147 10.2888C19.9403 10.224 19.9857 10.2188 20.4624 10.2188C20.9119 10.2188 20.9909 10.2253 21.0919 10.2797V10.281Z" fill="#303030" fill-opacity="0.8"/>
</g>
<defs>
<clipPath id="clip0_47_722">
<rect width="31.0894" height="31.0894" fill="white" transform="translate(0.201172 0.869019)"/>
</clipPath>
</defs>
</svg>
