<svg width="33" height="32" viewBox="0 0 33 32" fill="none" xmlns="http://www.w3.org/2000/svg">
<g clip-path="url(#clip0_47_740)">
<path fill-rule="evenodd" clip-rule="evenodd" d="M32.0288 31.7654H0.939453V0.676025H32.0288V31.7654ZM25.6173 13.8534V11.4422C25.2201 11.2654 22.9461 10.6149 21.1495 11.3004C18.5615 12.2878 18.6545 15.2626 19.6366 16.4301C20.909 17.9428 24.0742 18.5068 23.5563 19.9915C23.288 20.7604 22.0359 20.8942 20.932 20.6361C19.904 20.3957 19.0102 19.7868 19.0102 19.7868V22.3399C19.0102 22.3399 19.8937 22.8324 20.978 22.9496C22.3681 23.0998 24.1106 22.8162 24.9835 22.0403C26.5374 20.6591 26.776 17.5993 23.8313 16.1785C21.3809 14.9963 21.4212 14.6588 21.4384 14.0524C21.4615 13.2402 23.1668 12.7402 25.6173 13.8534ZM12.4031 7.08669C14.4419 7.15762 17.4382 8.09728 17.4382 12.1041C17.4382 16.1109 13.7722 17.4257 10.4271 17.1393V22.8126H7.93517V7.13982C7.93517 7.13982 10.3641 7.01577 12.403 7.08669H12.4031ZM13.0502 14.6571C14.1247 14.2651 14.8231 13.4222 14.8231 12.1129C14.8231 10.7248 14.1124 9.78473 13.0253 9.51919C11.8482 9.23156 10.4271 9.40109 10.4271 9.40109V14.8687C10.4271 14.8687 12.3942 14.8965 13.0502 14.6571Z" fill="#303030" fill-opacity="0.8"/>
</g>
<defs>
<clipPath id="clip0_47_740">
<rect width="31.0894" height="31.0894" fill="white" transform="translate(0.939453 0.676025)"/>
</clipPath>
</defs>
</svg>
