<svg width="33" height="30" viewBox="0 0 33 30" fill="none" xmlns="http://www.w3.org/2000/svg">
<path d="M32.6032 14.7196C32.6032 12.5927 29.9399 10.5769 25.8562 9.32759C26.7992 5.16621 26.3805 1.85423 24.5346 0.793493C24.0873 0.542981 23.5811 0.416885 23.0685 0.428319V1.88634C23.3695 1.88634 23.6116 1.94653 23.8149 2.05756C24.7045 2.56853 25.091 4.51077 24.7901 7.01081C24.7178 7.62612 24.6001 8.27353 24.4557 8.93432C23.0881 8.60478 21.7001 8.3666 20.301 8.22136C19.4674 7.07139 18.558 5.97834 17.5789 4.94952C19.7124 2.96715 21.7148 1.88099 23.0766 1.88099V0.421631C21.2761 0.421631 18.9205 1.70442 16.5382 3.9289C14.1572 1.71913 11.8003 0.448383 10.0012 0.448383V1.9064C11.3562 1.9064 13.3653 2.98721 15.4989 4.9562C14.5826 5.9193 13.6663 7.01081 12.7955 8.22136C11.3935 8.36499 10.003 8.60545 8.63414 8.94101C8.48947 8.31472 8.37564 7.6817 8.29305 7.04425C7.98539 4.54288 8.36528 2.60063 9.24945 2.08431C9.44475 1.9666 9.70023 1.91309 10.0012 1.91309V0.455072C9.45277 0.455072 8.95384 0.572783 8.52312 0.820245C6.68387 1.88099 6.27188 5.18494 7.22026 9.33427C3.14985 10.5916 0.5 12.5994 0.5 14.7196C0.5 16.8464 3.16323 18.8622 7.24702 20.1102C6.30399 24.2729 6.72266 27.5849 8.5686 28.6443C8.99396 28.8931 9.49156 29.0108 10.04 29.0108C11.8404 29.0108 14.196 27.7281 16.5783 25.5036C18.9593 27.7147 21.3149 28.9841 23.1153 28.9841C23.6318 28.995 24.1419 28.8685 24.5934 28.6176C26.4327 27.5582 26.8447 24.2542 25.8963 20.1049C29.9533 18.8555 32.6032 16.8397 32.6032 14.7196ZM24.0825 10.3549C23.8283 11.2295 23.5337 12.0919 23.1996 12.9392C22.6527 11.8755 22.0523 10.8401 21.4005 9.83722C22.3302 9.975 23.2264 10.1449 24.0838 10.3549H24.0825ZM21.0862 17.3239C20.5962 18.1793 20.0701 19.0134 19.5091 19.824C17.5458 19.997 15.5712 19.9993 13.6075 19.8307C12.4811 18.2217 11.4961 16.5184 10.6633 14.7396C11.4948 12.9567 12.4756 11.2474 13.5954 9.62989C15.5582 9.45649 17.5324 9.45381 19.4957 9.62186C20.0388 10.4004 20.5698 11.2324 21.0795 12.1099C21.5771 12.9659 22.0292 13.8354 22.4412 14.7129C22.0246 15.601 21.5726 16.4721 21.0862 17.3239ZM23.1996 16.4732C23.5528 17.3494 23.8551 18.2269 24.1025 19.0776C23.2464 19.2876 22.3422 19.4642 21.4072 19.6006C22.0563 18.5886 22.6545 17.5448 23.1996 16.4732ZM16.565 23.4557C15.9563 22.827 15.3477 22.1274 14.7458 21.3609C15.3343 21.3877 15.9363 21.4077 16.5449 21.4077C17.1602 21.4077 17.7688 21.3944 18.3641 21.3609C17.7755 22.1274 17.1669 22.827 16.565 23.4557ZM11.696 19.6006C10.7941 19.4699 9.89869 19.2976 9.01269 19.0843C9.2548 18.2402 9.55577 17.3694 9.89553 16.5C10.1644 17.0216 10.4466 17.546 10.7543 18.0704C11.0619 18.5934 11.3749 19.1043 11.696 19.6006ZM16.5315 5.98351C17.1401 6.61219 17.7488 7.31177 18.3507 8.07824C17.7621 8.05148 17.1602 8.03142 16.5516 8.03142C15.9363 8.03142 15.3277 8.0448 14.7324 8.07824C15.321 7.31177 15.9296 6.61219 16.5315 5.98351ZM11.6893 9.83856C11.0404 10.8484 10.4422 11.8899 9.89687 12.9593C9.55338 12.1065 9.25205 11.2373 8.99396 10.3549C9.85005 10.1516 10.7543 9.975 11.6893 9.83856ZM5.7676 18.0302C3.45082 17.043 1.95267 15.7469 1.95267 14.7196C1.95267 13.6923 3.45082 12.3894 5.7676 11.4089C6.3294 11.1668 6.94471 10.9501 7.58009 10.7482C7.95329 12.0296 8.4442 13.3646 9.05148 14.733C8.47813 16.02 7.99323 17.3447 7.60015 18.6977C6.97876 18.5053 6.36717 18.2825 5.7676 18.0302ZM9.28824 27.3803C8.39872 26.872 8.01214 24.9271 8.31311 22.4284C8.38534 21.813 8.50305 21.1643 8.64752 20.5035C9.92897 20.8178 11.3295 21.06 12.8022 21.2178C13.6358 22.3677 14.5452 23.4608 15.5243 24.4896C13.3908 26.472 11.3883 27.5582 10.0266 27.5582C9.76971 27.561 9.51609 27.5003 9.28824 27.3816V27.3803ZM24.8101 22.3949C25.1178 24.8949 24.7379 26.8385 23.8537 27.3549C23.6584 27.4726 23.4029 27.5247 23.102 27.5247C21.7469 27.5247 19.7378 26.4453 17.6043 24.4749C18.5793 23.4504 19.4826 22.3599 20.3077 21.2111C21.7097 21.0675 23.1002 20.827 24.469 20.4915C24.6202 21.1523 24.7366 21.7863 24.8101 22.3949ZM27.3289 18.0302C26.7671 18.2723 26.1518 18.489 25.5164 18.691C25.1164 17.3311 24.6248 15.9997 24.045 14.7062C24.6469 13.3458 25.1298 12.0176 25.4963 10.7415C26.1197 10.9345 26.7335 11.1573 27.3356 11.4089C29.6524 12.3961 31.1505 13.6923 31.1505 14.7196C31.1438 15.7469 29.6457 17.0497 27.3289 18.0302Z" fill="#303030" fill-opacity="0.8"/>
<path d="M16.5456 17.7105C17.3389 17.7105 18.0996 17.3954 18.6606 16.8345C19.2215 16.2736 19.5366 15.5128 19.5366 14.7196C19.5366 13.9263 19.2215 13.1656 18.6606 12.6047C18.0996 12.0438 17.3389 11.7286 16.5456 11.7286C15.7524 11.7286 14.9916 12.0438 14.4307 12.6047C13.8698 13.1656 13.5547 13.9263 13.5547 14.7196C13.5547 15.5128 13.8698 16.2736 14.4307 16.8345C14.9916 17.3954 15.7524 17.7105 16.5456 17.7105Z" fill="#303030" fill-opacity="0.8"/>
</svg>
