<svg width="33" height="32" viewBox="0 0 33 32" fill="none" xmlns="http://www.w3.org/2000/svg">
<path d="M26.8473 21.292C24.6019 21.292 22.702 22.6815 22.0111 24.7657H14.757C14.757 23.5499 14.4115 22.5078 13.8934 21.6394L26.1564 8.96045C26.6746 8.96045 27.1927 9.13414 27.7109 9.13414C30.1289 9.13414 32.0288 7.22362 32.0288 4.79204C32.0288 2.36047 30.1289 0.449951 27.7109 0.449951C25.2928 0.449951 23.3929 2.36047 23.3929 4.79204C23.3929 5.3131 23.5656 6.00783 23.7383 6.52888L11.648 19.0341C10.6117 18.1657 9.22996 17.8183 7.84821 17.8183V10.5236C9.92083 9.82887 11.3026 7.91835 11.3026 5.66046C11.3026 2.70784 9.05724 0.449951 6.12102 0.449951C3.1848 0.449951 0.939453 2.70784 0.939453 5.66046C0.939453 7.91835 2.3212 9.82887 4.39383 10.5236V18.6867C2.3212 19.9025 0.939453 22.1604 0.939453 24.592C0.939453 28.413 4.04839 31.5393 7.84821 31.5393C10.439 31.5393 12.6843 30.1499 13.7206 28.0657H21.8384C22.5293 29.9762 24.4292 31.5393 26.6746 31.5393C29.4381 31.5393 31.8561 29.2814 31.8561 26.3288C32.0288 23.5499 29.6108 21.292 26.8473 21.292Z" fill="#303030" fill-opacity="0.8"/>
</svg>
