<svg width="27" height="31" viewBox="0 0 27 31" fill="none" xmlns="http://www.w3.org/2000/svg">
<path d="M19.1192 4.20197V26.5052C19.1192 28.9883 20.8136 30.386 22.6714 30.386C24.3657 30.386 26.2236 29.2113 26.2236 26.5052V4.36552C26.2236 2.07572 24.5292 0.648315 22.6714 0.648315C20.8136 0.648315 19.1192 2.22441 19.1192 4.20197ZM9.83013 15.5172V26.5052C9.83013 29.0032 11.5542 30.386 13.3823 30.386C15.0766 30.386 16.9344 29.2113 16.9344 26.5052V15.6807C16.9344 13.3909 15.2401 11.9635 13.3823 11.9635C11.5245 11.9635 9.83013 13.5396 9.83013 15.5172ZM4.09317 23.2936C6.05503 23.2936 7.64533 24.8845 7.64533 26.8323C7.64533 27.7748 7.27109 28.6787 6.60493 29.3451C5.93877 30.0116 5.03526 30.386 4.09317 30.386C3.15108 30.386 2.24758 30.0116 1.58142 29.3451C0.91526 28.6787 0.541016 27.7748 0.541016 26.8323C0.541016 24.8845 2.13131 23.2936 4.09317 23.2936Z" fill="#303030" fill-opacity="0.8"/>
</svg>
