<svg width="36" height="29" viewBox="0 0 36 29" fill="none" xmlns="http://www.w3.org/2000/svg">
<path fill-rule="evenodd" clip-rule="evenodd" d="M7.55579 0.869019C5.56892 0.869019 4.09979 2.60679 4.1665 4.48949C4.22886 6.30118 4.14765 8.64478 3.55738 10.5565C2.96277 12.4725 1.96208 13.6871 0.326172 13.8436V15.6046C1.96208 15.7596 2.96422 16.9742 3.55593 18.8917C4.14765 20.8034 4.22886 23.147 4.16505 24.9572C4.09979 26.8414 5.56892 28.5791 7.55579 28.5791H27.906C29.8929 28.5791 31.3621 26.8414 31.2953 24.9572C31.233 23.147 31.3142 20.8034 31.9045 18.8917C32.4976 16.9742 33.4969 15.7611 35.1328 15.6046V13.8436C33.4969 13.6871 32.4976 12.4725 31.9045 10.5565C31.3142 8.64333 31.233 6.29973 31.2953 4.48949C31.3621 2.60534 29.8915 0.869019 27.906 0.869019H7.55579ZM23.9221 17.9264C23.9221 20.5207 21.986 22.0933 18.7737 22.0933H13.3047C13.1481 22.0933 12.998 22.0311 12.8873 21.9205C12.7766 21.8099 12.7144 21.6598 12.7144 21.5034V7.94329C12.7148 7.7871 12.7772 7.63743 12.8878 7.52712C12.9985 7.4168 13.1484 7.35486 13.3047 7.35486H18.7432C21.4219 7.35486 23.1811 8.8042 23.1811 11.0319C23.1811 12.5943 21.9976 13.9929 20.4908 14.2393V14.3204C22.5429 14.5451 23.9236 15.9654 23.9236 17.9264H23.9221ZM18.1791 9.22307H15.061V13.6262H17.6874C19.7178 13.6262 20.8374 12.8088 20.8374 11.3478C20.8374 9.97963 19.8744 9.22307 18.1791 9.22307ZM15.061 15.3727V20.2236H18.2951C20.4081 20.2236 21.5292 19.3758 21.5292 17.7829C21.5292 16.1886 20.3777 15.3727 18.1588 15.3727H15.061Z" fill="#303030" fill-opacity="0.8"/>
</svg>
