<svg width="18" height="27" viewBox="0 0 18 27" fill="none" xmlns="http://www.w3.org/2000/svg">
<path d="M13.1174 9.26596C14.2396 9.23228 15.3045 8.76284 16.0863 7.95718C16.8682 7.15153 17.3055 6.07302 17.3055 4.95036C17.3055 3.82771 16.8682 2.7492 16.0863 1.94354C15.3045 1.13788 14.2396 0.668443 13.1174 0.634766H4.48494C3.36279 0.668443 2.29789 1.13788 1.51605 1.94354C0.734208 2.7492 0.296923 3.82771 0.296923 4.95036C0.296923 6.07302 0.734208 7.15153 1.51605 7.95718C2.29789 8.76284 3.36279 9.23228 4.48494 9.26596C3.35298 9.28557 2.27401 9.749 1.48044 10.5564C0.686865 11.3639 0.242188 12.4507 0.242188 13.5828C0.242188 14.715 0.686865 15.8018 1.48044 16.6093C2.27401 17.4167 3.35298 17.8801 4.48494 17.8997C3.35851 17.9273 2.2875 18.3942 1.50057 19.2006C0.713647 20.0071 0.27316 21.0892 0.27316 22.216C0.27316 23.3427 0.713647 24.4249 1.50057 25.2313C2.2875 26.0378 3.35851 26.5046 4.48494 26.5322C5.6297 26.5315 6.72735 26.0764 7.53669 25.2668C8.34603 24.4572 8.80084 23.3594 8.80119 22.2147V9.26596H13.1174Z" fill="#303030" fill-opacity="0.8"/>
<path d="M12.3319 19.2002C14.7157 19.2002 16.6481 17.2678 16.6481 14.884C16.6481 12.5002 14.7157 10.5677 12.3319 10.5677C9.94807 10.5677 8.01562 12.5002 8.01562 14.884C8.01562 17.2678 9.94807 19.2002 12.3319 19.2002Z" fill="#303030" fill-opacity="0.8"/>
</svg>
