<svg width="32" height="32" viewBox="0 0 32 32" fill="none" xmlns="http://www.w3.org/2000/svg">
<path d="M31.1872 14.4986L17.6122 0.925906C17.4264 0.739953 17.2057 0.592441 16.9628 0.491799C16.7199 0.391156 16.4596 0.339355 16.1966 0.339355C15.9337 0.339355 15.6734 0.391156 15.4305 0.491799C15.1876 0.592441 14.9669 0.739953 14.781 0.925906L11.9634 3.74343L15.5389 7.31877C15.9605 7.17481 16.4142 7.15228 16.8481 7.25377C17.2819 7.35527 17.6785 7.57668 17.9926 7.89276C18.3066 8.20883 18.5255 8.60683 18.6242 9.04132C18.7229 9.47582 18.6975 9.92931 18.5508 10.35L21.996 13.7971C22.5057 13.6177 23.0614 13.6171 23.5715 13.7956C24.0815 13.9741 24.5156 14.3209 24.8022 14.779C25.0889 15.2371 25.211 15.7791 25.1484 16.3159C25.0858 16.8526 24.8423 17.3521 24.458 17.732C24.069 18.1234 23.5561 18.3676 23.007 18.4229C22.4579 18.4782 21.9066 18.3411 21.4473 18.0351C20.988 17.729 20.6493 17.2731 20.4888 16.745C20.3284 16.217 20.3563 15.6496 20.5678 15.1398L17.3557 11.9259V20.3843C17.844 20.626 18.2346 21.0277 18.4626 21.5225C18.6906 22.0172 18.7421 22.5752 18.6085 23.1033C18.475 23.6315 18.1644 24.0979 17.7287 24.4248C17.2929 24.7518 16.7583 24.9195 16.2138 24.9001C15.6694 24.8806 15.1481 24.6752 14.7368 24.318C14.3255 23.9608 14.049 23.4734 13.9535 22.9371C13.8579 22.4008 13.9491 21.8479 14.2118 21.3706C14.4745 20.8934 14.8928 20.5206 15.397 20.3144V11.7782C15.1061 11.659 14.8417 11.4834 14.6189 11.2615C14.3962 11.0397 14.2196 10.7759 14.0993 10.4854C13.979 10.195 13.9174 9.88359 13.918 9.56921C13.9186 9.25483 13.9814 8.94368 14.1029 8.6537L10.5799 5.12888L1.27211 14.4364C1.08615 14.6223 0.938639 14.843 0.837994 15.0859C0.737349 15.3287 0.685547 15.5891 0.685547 15.852C0.685547 16.1149 0.737349 16.3752 0.837994 16.6181C0.938639 16.861 1.08615 17.0817 1.27211 17.2675L14.8471 30.8422C15.033 31.0281 15.2537 31.1757 15.4965 31.2763C15.7394 31.3769 15.9998 31.4287 16.2627 31.4287C16.5256 31.4287 16.786 31.3769 17.0289 31.2763C17.2718 31.1757 17.4924 31.0281 17.6783 30.8422L31.1892 17.3317C31.5643 16.9561 31.7749 16.4469 31.7749 15.9161C31.7749 15.3853 31.5643 14.8762 31.1892 14.5005" fill="#303030" fill-opacity="0.8"/>
</svg>
