<svg width="32" height="36" viewBox="0 0 32 36" fill="none" xmlns="http://www.w3.org/2000/svg">
<path fill-rule="evenodd" clip-rule="evenodd" d="M15.2013 6.53106C15.7654 6.70162 16.3661 6.71085 16.9352 6.55771L26.302 23.1147C25.8683 23.5325 25.5636 24.0659 25.4239 24.6516H6.79992C6.65006 24.0366 6.32011 23.4804 5.85228 23.054L15.1998 6.53106H15.2013ZM13.8376 5.69447C13.8642 5.72409 13.8939 5.75222 13.922 5.78035L4.55373 22.3418C4.50955 22.3299 4.46512 22.3191 4.42047 22.3092V13.8886C4.8464 13.7933 5.24781 13.6103 5.59911 13.3513C5.9504 13.0923 6.24389 12.7629 6.46084 12.3842C6.67692 12.0076 6.81337 11.5907 6.86177 11.1592C6.91016 10.7278 6.86945 10.291 6.74217 9.87592L13.8376 5.69595V5.69447ZM19.1236 4.45811C19.2737 3.98695 19.3111 3.48715 19.2328 2.99891C19.1545 2.51066 18.9628 2.04761 18.6729 1.64698C18.3831 1.24636 18.0032 0.919355 17.564 0.692269C17.1247 0.465183 16.6383 0.344356 16.1439 0.339507C15.6494 0.334659 15.1607 0.445923 14.7171 0.664352C14.2735 0.88278 13.8873 1.20227 13.5897 1.59714C13.292 1.992 13.0912 2.45121 13.0034 2.93782C12.9155 3.42443 12.9431 3.92487 13.0839 4.39888L5.98406 8.58328C5.64335 8.23386 5.22622 7.96823 4.76548 7.80728C4.30474 7.64634 3.81294 7.59446 3.32876 7.65574C2.84458 7.71702 2.38121 7.88977 1.97509 8.16042C1.56897 8.43108 1.23117 8.79224 0.988248 9.21553C0.745629 9.63935 0.603962 10.1134 0.574248 10.6008C0.544533 11.0883 0.62757 11.576 0.816911 12.0262C1.00625 12.4763 1.2968 12.8768 1.666 13.1964C2.03519 13.5161 2.4731 13.7463 2.94571 13.8693V22.3314C2.47413 22.4556 2.03744 22.6866 1.66943 23.0066C1.30142 23.3266 1.01196 23.7269 0.823442 24.1767C0.634924 24.6264 0.552404 25.1135 0.582266 25.6003C0.612128 26.087 0.75357 26.5604 0.995651 26.9837C1.23824 27.406 1.57532 27.7663 1.98048 28.0365C2.38563 28.3067 2.84786 28.4794 3.33093 28.5411C3.81399 28.6028 4.30478 28.5517 4.76483 28.392C5.22488 28.2323 5.64168 27.9682 5.98258 27.6204L13.0824 31.8048C12.9976 32.0958 12.9547 32.3975 12.9551 32.7006C12.9541 33.1161 13.0351 33.5276 13.1934 33.9117C13.3516 34.2958 13.5841 34.645 13.8774 34.9392C14.1708 35.2333 14.5193 35.4668 14.903 35.6261C15.2866 35.7855 15.698 35.8676 16.1134 35.8678C16.6189 35.8667 17.1168 35.7445 17.5654 35.5116C18.0141 35.2786 18.4004 34.9416 18.6921 34.5287C18.9837 34.1158 19.1723 33.6391 19.242 33.1384C19.3116 32.6377 19.2604 32.1276 19.0925 31.6508L26.1272 27.5049C26.4588 27.8797 26.8749 28.1701 27.3411 28.3521C27.8072 28.5341 28.31 28.6024 28.8078 28.5515C29.3056 28.5005 29.7841 28.3318 30.2037 28.0591C30.6233 27.7865 30.972 27.4179 31.2208 26.9837C31.4702 26.5534 31.6148 26.0704 31.6427 25.5739C31.6707 25.0773 31.5813 24.5811 31.3817 24.1256C31.1821 23.67 30.878 23.2679 30.494 22.9518C30.11 22.6357 29.6569 22.4145 29.1715 22.3062V13.896C29.6573 13.7875 30.1109 13.5664 30.4957 13.2506C30.8804 12.9348 31.1857 12.533 31.3868 12.0776C31.5879 11.6223 31.6792 11.1261 31.6535 10.6289C31.6277 10.1318 31.4856 9.64768 31.2386 9.21553C30.9927 8.78858 30.6503 8.42509 30.2388 8.1541C29.8273 7.88311 29.3582 7.71215 28.8688 7.65489C28.3795 7.59762 27.8835 7.65564 27.4206 7.8243C26.9576 7.99296 26.5406 8.26758 26.2028 8.62622L19.1251 4.45663L19.1236 4.45811ZM18.2367 5.8455L18.3477 5.73889L25.4669 9.93366C25.3508 10.3413 25.3176 10.768 25.3692 11.1886C25.4208 11.6093 25.5563 12.0153 25.7674 12.3827C25.9744 12.7454 26.2516 13.0632 26.5829 13.3175C26.9142 13.5717 27.2929 13.7573 27.6968 13.8634V22.3329C27.658 22.3435 27.6195 22.3548 27.5813 22.3669L18.2367 5.8455ZM25.4846 26.3648L18.4159 30.5314C18.1213 30.2161 17.765 29.9648 17.3692 29.7931C16.9733 29.6214 16.5464 29.533 16.1149 29.5334C15.2176 29.5334 14.4091 29.9066 13.8346 30.5077L6.74958 26.3322C6.76734 26.2745 6.78363 26.2167 6.79696 26.1575H25.4269C25.4446 26.2271 25.4639 26.2967 25.4861 26.3648H25.4846Z" fill="#303030" fill-opacity="0.8"/>
</svg>
