<svg width="32" height="32" viewBox="0 0 32 32" fill="none" xmlns="http://www.w3.org/2000/svg">
<g clip-path="url(#clip0_47_717)">
<path d="M20.5845 3.86995V9.72123L27.1599 26.608C27.1599 26.608 29.1677 30.7325 23.4266 31.7377H10.3302C10.3302 31.7377 4.9776 31.1794 6.26133 26.9422L13.1709 9.72123V3.86995H20.5845ZM23.2918 20.8499C17.5533 19.0701 12.7279 20.0248 10.3703 20.7476L7.99197 26.4719C6.97768 29.7091 10.9364 30.2817 11.3561 30.3322L11.3924 30.3374H22.3307C26.9163 29.5627 25.5834 26.4875 25.459 26.2219L25.45 26.2038L23.2918 20.8499ZM13.1696 21.8565C14.193 21.8565 15.0221 22.3565 15.0221 22.977C15.0221 23.5936 14.193 24.0962 13.1696 24.0962C12.1489 24.0962 11.3211 23.5936 11.3211 22.977C11.3211 22.3565 12.1489 21.8565 13.1696 21.8565ZM19.7554 21.8565C20.7749 21.8565 21.6039 22.3565 21.6039 22.977C21.6039 23.5936 20.7749 24.0962 19.7554 24.0962C18.7321 24.0962 17.9043 23.5936 17.9043 22.977C17.9043 22.3565 18.7308 21.8565 19.7567 21.8565H19.7554ZM13.9262 15.1036C13.2111 15.1036 12.6308 15.8031 12.6308 16.6645C12.6308 17.5273 13.2111 18.2255 13.9262 18.2255C14.6412 18.2255 15.2215 17.526 15.2215 16.6645C15.2215 15.8018 14.6412 15.1036 13.9262 15.1036ZM18.6427 13.4235C17.7942 13.4235 17.1063 14.2499 17.1063 15.2759C17.1063 16.294 17.7942 17.1231 18.6427 17.1231C19.4886 17.1231 20.1803 16.294 20.1803 15.2746C20.1803 14.2512 19.4899 13.4235 18.6427 13.4235ZM26.463 9.87668C26.463 9.87668 23.7141 11.8794 21.17 9.33262V6.55012C21.17 6.55012 24.6986 5.77288 26.463 9.87668ZM7.23417 9.87668C8.9959 5.77288 12.5258 6.55012 12.5258 6.55012V9.33262C9.9804 11.8794 7.23417 9.87668 7.23417 9.87668ZM20.7244 0.648315C21.3656 0.648315 21.8837 1.21699 21.8837 1.91909C21.8837 2.6212 21.3656 3.18858 20.7244 3.18858H12.8354C12.1981 3.18858 11.6774 2.6212 11.6774 1.91909C11.6774 1.21699 12.1968 0.648315 12.8367 0.648315H20.7244Z" fill="#303030" fill-opacity="0.8"/>
</g>
<defs>
<clipPath id="clip0_47_717">
<rect width="31.0894" height="31.0894" fill="white" transform="translate(0.880859 0.648315)"/>
</clipPath>
</defs>
</svg>
