<svg width="38" height="37" viewBox="0 0 38 37" fill="none" xmlns="http://www.w3.org/2000/svg">
<path d="M21.2648 5.60418C19.9757 4.06942 18.8553 2.53467 18.6404 2.19702H18.5944C18.3795 2.51932 17.2591 4.06942 15.9699 5.60418C4.91969 19.7086 17.7196 29.2241 17.7196 29.2241L17.827 29.3008C17.9191 30.7588 18.1646 32.8768 18.1646 32.8768H19.1162C19.1162 32.8768 19.3464 30.7742 19.4385 29.3008L19.5459 29.2087C19.5459 29.2087 32.3151 19.7086 21.2648 5.60418ZM18.5944 29.0092C18.3254 28.7883 18.0787 28.5415 17.8577 28.2725L18.5944 12.925L19.285 28.2725C19.078 28.5388 18.8468 28.7854 18.5944 29.0092Z" fill="#303030" fill-opacity="0.8"/>
</svg>
