<svg width="33" height="32" viewBox="0 0 33 32" fill="none" xmlns="http://www.w3.org/2000/svg">
<g clip-path="url(#clip0_47_733)">
<path d="M16.4841 0.0698242C25.0337 0.0698242 32.0288 7.06494 32.0288 15.6145C32.0288 24.1641 25.0337 31.1592 16.4841 31.1592C7.93456 31.1592 0.939453 24.1641 0.939453 15.6145C0.939453 7.06494 7.93456 0.0698242 16.4841 0.0698242ZM13.3752 20.7637C13.5695 21.6381 13.5695 22.4153 13.3752 23.0954L13.2781 23.3869C13.2781 23.484 13.1809 23.5812 13.1809 23.5812C12.9866 23.9698 12.7923 24.2613 12.5008 24.6499C11.6264 25.6214 10.3634 26.01 9.7805 25.7186C9.19757 25.4271 9.48903 23.9698 10.5577 22.9011C11.7236 21.7352 13.2781 20.958 13.2781 20.958L13.3752 20.7637ZM26.1996 6.67632C25.5195 3.956 20.9532 2.98445 16.5813 4.53892C14.0553 5.51047 11.2378 6.96778 9.19757 8.81371C6.76871 11.0483 6.47725 12.9913 6.5744 13.7686C7.15733 16.5861 11.0435 18.5291 12.6951 19.8893C12.2094 20.0836 8.7118 21.8324 7.93456 23.6783C7.06018 25.6214 8.03172 26.9816 8.7118 27.0787C10.752 27.6617 12.8894 26.593 13.9581 24.9413C15.0268 23.2897 14.9297 21.2495 14.4439 20.1808C15.1997 19.9474 16.003 19.9139 16.7756 20.0836C19.4959 20.3751 20.0789 22.1239 19.8845 22.8039C19.6902 23.484 19.2045 23.8726 19.0102 24.0669C18.8158 24.1641 18.7187 24.2612 18.8158 24.2612C18.8158 24.3584 18.913 24.3584 19.1073 24.3584C19.3016 24.3584 20.5646 23.7755 20.5646 22.4153C20.6618 20.7637 19.0102 18.9178 16.1927 18.9178C15.0268 18.9178 14.2496 19.0149 13.7638 19.2092C13.7638 19.1121 13.6667 19.1121 13.6667 19.1121C11.9179 17.2661 8.7118 15.906 8.80895 13.38C8.80895 12.5056 9.19757 10.0767 15.0268 7.16209C19.7874 4.73323 23.6736 5.41331 24.3536 6.87063C25.3252 8.91087 22.3134 12.797 17.3585 13.38C15.4154 13.5743 14.4439 12.8942 14.2496 12.6027C13.9581 12.3113 13.9581 12.3113 13.861 12.3113C13.6667 12.4084 13.7638 12.6027 13.861 12.797C14.0553 13.1857 14.6382 13.8657 15.7069 14.2544C16.5813 14.5458 18.8158 14.7401 21.5362 13.6714C24.548 12.5056 26.8797 9.29949 26.1996 6.57916V6.67632Z" fill="#303030" fill-opacity="0.8"/>
</g>
<defs>
<clipPath id="clip0_47_733">
<rect width="31.0894" height="31.0894" fill="white" transform="translate(0.939453 0.0698242)"/>
</clipPath>
</defs>
</svg>
