<svg width="32" height="32" viewBox="0 0 32 32" fill="none" xmlns="http://www.w3.org/2000/svg">
<path d="M10.0341 0.869019V11.2775H20.1171C20.4802 11.2775 20.7681 11.5832 20.7681 11.9032V22.0099H31.1753V1.51931C31.1753 1.34684 31.1067 1.18144 30.9846 1.05948C30.8626 0.937531 30.697 0.869019 30.5243 0.869019H10.0341ZM9.38568 1.51672L0.180651 10.7231C0.135303 10.7686 0.104476 10.8266 0.0920611 10.8896C0.0796462 10.9526 0.0861994 11.0179 0.110894 11.0772C0.135588 11.1365 0.177317 11.1872 0.230815 11.2229C0.284313 11.2585 0.347182 11.2775 0.41149 11.2775H9.38568V1.51672ZM10.0341 11.9252V21.3596C10.0341 21.7197 10.3246 22.0099 10.6851 22.0099H20.1197V12.5509C20.1197 12.1908 19.8292 11.9265 19.4687 11.9252H10.0341ZM20.7681 22.6576V31.6321C20.7681 31.9222 21.1196 32.0673 21.3258 31.8626L30.5269 22.6576H20.7681Z" fill="#303030" fill-opacity="0.8"/>
</svg>
