<svg width="32" height="32" viewBox="0 0 32 32" fill="none" xmlns="http://www.w3.org/2000/svg">
<g clip-path="url(#clip0_47_727)">
<path d="M0.839844 16.3601V31.9048H31.9292V0.81543H0.839844V16.3601ZM25.8921 15.1204C26.6374 15.2959 27.3147 15.6864 27.84 16.2435C28.1237 16.5467 28.5483 17.1034 28.5842 17.2403C28.5939 17.2811 27.2435 18.1866 26.4235 18.6928C26.3934 18.7132 26.2719 18.5869 26.1398 18.3887C25.7405 17.8067 25.3198 17.5541 24.6776 17.5085C23.7362 17.4473 23.129 17.9389 23.1338 18.7637C23.1289 18.9656 23.174 19.1655 23.265 19.3457C23.4729 19.7761 23.8625 20.0335 25.0662 20.5552C27.293 21.5112 28.2442 22.1437 28.8358 23.0395C29.4984 24.0411 29.6451 25.6403 29.2002 26.8343C28.7047 28.1245 27.4796 29.0048 25.759 29.2933C25.2275 29.3895 23.9626 29.3739 23.3903 29.268C22.1409 29.0456 20.9566 28.4277 20.228 27.6184C19.9394 27.3046 19.3827 26.4797 19.4187 26.4243C19.4342 26.4039 19.5605 26.3233 19.7024 26.2417L20.8566 25.5733L21.7523 25.0525L21.9398 25.3304C22.2031 25.7297 22.7744 26.2767 23.1193 26.4583C24.1112 26.9849 25.4724 26.9091 26.1456 26.3068C26.4186 26.0794 26.5712 25.7297 26.5508 25.376C26.5508 25.0166 26.5051 24.8553 26.3176 24.5862C26.0747 24.2423 25.5841 23.9488 24.1821 23.3416C22.5781 22.648 21.8844 22.2234 21.2578 21.5404C20.8633 21.0908 20.5716 20.5607 20.4028 19.9869C20.2863 19.5468 20.2561 18.4431 20.3475 18.003C20.6768 16.4495 21.8504 15.3721 23.5351 15.0534C24.0821 14.9475 25.3567 14.9873 25.893 15.1195L25.8921 15.1204ZM18.5958 16.4213L18.6055 17.6911H14.5571V29.1932H11.693V17.6911H7.65036V16.4466C7.65036 15.7529 7.66591 15.1768 7.68534 15.1612C7.70088 15.1408 10.1599 15.1311 13.1454 15.136L18.5802 15.1515L18.5958 16.4213Z" fill="#303030" fill-opacity="0.8"/>
</g>
<defs>
<clipPath id="clip0_47_727">
<rect width="31.0894" height="31.0894" fill="white" transform="translate(0.839844 0.81543)"/>
</clipPath>
</defs>
</svg>
