<svg width="16" height="15" viewBox="0 0 16 15" fill="none" xmlns="http://www.w3.org/2000/svg">
<path d="M11.9994 5.0025H9.59945V0H6.39957V5.0025H3.99965L7.99951 9.17125L11.9994 5.0025ZM15.4696 10.4486C15.3017 10.2618 14.1809 9.01201 13.8609 8.68601C13.6367 8.46198 13.338 8.33709 13.0273 8.3375H11.6218L14.0729 10.8338H11.2378C11.1993 10.833 11.1612 10.8429 11.1275 10.8623C11.0938 10.8818 11.0656 10.9102 11.0458 10.9446L10.393 12.5063H5.60599L4.95322 10.9446C4.93327 10.9103 4.90506 10.882 4.87138 10.8626C4.8377 10.8431 4.79972 10.8332 4.76122 10.8338H1.92612L4.37644 8.3375H2.97169C2.6541 8.3375 2.35091 8.47007 2.13811 8.68601C1.81813 9.01284 0.697365 10.2626 0.529371 10.4486C0.138185 10.8829 -0.0770079 11.2289 0.0253886 11.6567L0.474173 14.2196C0.576569 14.6482 1.02695 15 1.47574 15H14.5249C14.9737 15 15.424 14.6482 15.5264 14.2196L15.9752 11.6567C16.076 11.2289 15.8616 10.8829 15.4696 10.4486Z" fill="#F5F5F5"/>
</svg>
