<svg width="18" height="18" viewBox="0 0 18 18" fill="none" xmlns="http://www.w3.org/2000/svg">
<path d="M8.99937 0.359985C4.22757 0.359985 0.359375 4.22818 0.359375 8.99998C0.359375 13.7718 4.22757 17.64 8.99937 17.64C13.7712 17.64 17.6394 13.7718 17.6394 8.99998C17.6394 4.22818 13.7712 0.359985 8.99937 0.359985ZM6.88437 12.5811H5.13477V6.95068H6.88437V12.5811ZM5.99877 6.25948C5.44617 6.25948 5.08887 5.86798 5.08887 5.38378C5.08887 4.88968 5.45697 4.50988 6.02127 4.50988C6.58557 4.50988 6.93117 4.88968 6.94197 5.38378C6.94197 5.86798 6.58557 6.25948 5.99877 6.25948ZM13.2744 12.5811H11.5248V9.46078C11.5248 8.73448 11.271 8.24128 10.6383 8.24128C10.155 8.24128 9.86787 8.57518 9.74097 8.89648C9.69417 9.01078 9.68247 9.17278 9.68247 9.33388V12.5802H7.93197V8.74618C7.93197 8.04328 7.90947 7.45558 7.88607 6.94978H9.40617L9.48627 7.73188H9.52137C9.75177 7.36468 10.3161 6.82288 11.2602 6.82288C12.4113 6.82288 13.2744 7.59418 13.2744 9.25198V12.5811Z" fill="#303030"/>
</svg>
