<svg width="16" height="12" viewBox="0 0 16 12" fill="none" xmlns="http://www.w3.org/2000/svg">
<path d="M15.5 3.456V9.5625C15.5 10.1851 15.2618 10.7841 14.8342 11.2367C14.4067 11.6892 13.8221 11.961 13.2005 11.9963L13.0625 12H2.9375C2.3149 12 1.71588 11.7618 1.26333 11.3342C0.810775 10.9067 0.538999 10.3221 0.50375 9.7005L0.5 9.5625V3.456L7.739 7.248C7.81953 7.29018 7.90909 7.31222 8 7.31222C8.09091 7.31222 8.18047 7.29018 8.261 7.248L15.5 3.456ZM2.9375 1.77038e-08H13.0625C13.6667 -7.2761e-05 14.2494 0.224247 14.6975 0.62945C15.1457 1.03465 15.4274 1.59186 15.488 2.193L8 6.1155L0.512 2.193C0.570143 1.61573 0.832287 1.07814 1.25131 0.676847C1.67034 0.275557 2.21876 0.0368902 2.798 0.0037501L2.9375 1.77038e-08H13.0625H2.9375Z" fill="black"/>
</svg>
