<svg width="18" height="17" viewBox="0 0 18 17" fill="none" xmlns="http://www.w3.org/2000/svg">
<path fill-rule="evenodd" clip-rule="evenodd" d="M8.58989 0C3.8634 0 0.0351562 3.89996 0.0351562 8.715C0.0351562 12.5714 2.48395 15.8286 5.88446 16.9834C6.31219 17.0596 6.47259 16.7982 6.47259 16.5694C6.47259 16.3624 6.4619 15.6761 6.4619 14.9462C4.31252 15.3493 3.75647 14.4124 3.58537 13.9222C3.48913 13.6717 3.07209 12.8982 2.70851 12.6912C2.40909 12.5278 1.98136 12.1247 2.69782 12.1138C3.3715 12.103 3.85271 12.7457 4.01311 13.0071C4.78303 14.3253 6.01278 13.9549 6.50467 13.7261C6.57953 13.1596 6.80409 12.7784 7.05004 12.5605C5.14661 12.3426 3.15763 11.5909 3.15763 8.25746C3.15763 7.3097 3.48913 6.52535 4.03449 5.9153C3.94895 5.69743 3.64953 4.80414 4.12004 3.60583C4.12004 3.60583 4.8365 3.37706 6.47259 4.49912C7.15697 4.30303 7.88412 4.20499 8.61128 4.20499C9.33843 4.20499 10.0656 4.30303 10.75 4.49912C12.3861 3.36617 13.1025 3.60583 13.1025 3.60583C13.573 4.80414 13.2736 5.69743 13.1881 5.9153C13.7334 6.52535 14.0649 7.29881 14.0649 8.25746C14.0649 11.6018 12.0652 12.3426 10.1618 12.5605C10.4719 12.8328 10.7393 13.3557 10.7393 14.1728C10.7393 15.3384 10.7286 16.2753 10.7286 16.5694C10.7286 16.7982 10.889 17.0705 11.3167 16.9834C13.015 16.3992 14.4906 15.2873 15.5361 13.8041C16.5815 12.3209 17.1441 10.541 17.1446 8.715C17.1446 3.89996 13.3164 0 8.58989 0Z" fill="#303030"/>
</svg>
